<svg height="512" viewBox="0 0 64 64" width="512" xmlns="http://www.w3.org/2000/svg"><g id="Blue"><path d="m28 59a13.834 13.834 0 0 0 7 2c4 0 9-5 9-10 0 0-6 5-10 5h-5z" fill="#cdeef6"/><path d="m57 35s11.083 11-5 20c0 0 6-11 1-14z" fill="#cdeef6"/><path d="m44 26 3-13 6-10h-15l-3 4-3 11s-7.721.749-11 1c-3.3.253-6.063 3.062-7 7l-1 6-8 12v6l4 5c1.262 1.442 4 3 6 2 1.155 1.717 5.015 5.212 12 1l1 1 1-3h5l-5-6 5-20 14 5s-2 7 5 6l4-6z" fill="#7cb8eb"/><g fill="#4f83d1"><path d="m15 58a1 1 0 0 1 -.777-.371c-6.015-7.429-3.223-12.871-3.105-13.1l6.882-12.783c.031-4.639.93-7.68 2.671-9.039a3.108 3.108 0 0 1 2.571-.677l-.486 1.94.244-.97-.209.978a1.236 1.236 0 0 0 -.947.353c-.689.581-1.844 2.351-1.844 7.669a1 1 0 0 1 -.12.474l-7 13c-.085.168-2.105 4.292 2.445 10.319l4.3-1.722.744 1.858-5 2a1.011 1.011 0 0 1 -.369.071z"/><path d="m26.445 58.832a12.522 12.522 0 0 1 -5.43-8.661c-.547-3.157 2.5-15.379 2.985-17.3.021-4.237 1.066-7.067 3.11-8.415a5.976 5.976 0 0 1 5.284-.378l-.783 1.84a4.019 4.019 0 0 0 -3.413.216c-1.438.966-2.198 3.336-2.198 6.866a.984.984 0 0 1 -.031.247c-1.4 5.5-3.353 14.451-2.984 16.582a10.592 10.592 0 0 0 4.57 7.339z"/><path d="m11 47h6v2h-6z"/><path d="m14.5 40.95h2v5.099h-2z" transform="matrix(.196 -.981 .981 .196 -30.195 50.168)"/><path d="m16.5 37.197h2v3.606h-2z" transform="matrix(.555 -.832 .832 .555 -24.657 31.928)"/><path d="m18.5 32.919h1.999v3.162h-1.999z" transform="matrix(.316 -.949 .949 .316 -19.396 42.089)"/><path d="m23.586 52h2.828v2h-2.828z" transform="matrix(.707 -.707 .707 .707 -30.154 33.201)"/><path d="m26 48h4v2h-4z"/><path d="m22.938 44.5h4.123v1.999h-4.123z" transform="matrix(.97 -.243 .243 .97 -10.298 7.43)"/><path d="m22.938 39.5h4.123v1.999h-4.123z" transform="matrix(.97 -.243 .243 .97 -9.084 7.281)"/><path d="m25 34h4v2h-4z"/><path d="m5 48h4v2h-4z"/><path d="m5 44h3v2h-3z"/><path d="m7.5 39.919h1.999v3.162h-1.999z" transform="matrix(.316 -.949 .949 .316 -33.558 36.44)"/><path d="m10 36.382h2v2.236h-2z" transform="matrix(.447 -.894 .894 .447 -27.46 30.568)"/><path d="m38.764 30h4.472v2h-4.472z" transform="matrix(.447 -.894 .894 .447 -5.063 53.808)"/><path d="m42.919 31.5h3.162v2h-3.162z" transform="matrix(.316 -.949 .949 .316 -.409 64.432)"/><path d="m36.5 12.757h1.999v9.487h-1.999z" transform="matrix(.316 -.949 .949 .316 9.04 47.542)"/><path d="m36.5 8.36h2.001v7.28h-2.001z" transform="matrix(.275 -.962 .962 .275 15.66 44.76)"/><path d="m57.569 34.178-12.442-8.615 2.812-12.184 5.918-9.864a1 1 0 0 0 -.857-1.515h-15a1 1 0 0 0 -.8.4l-3 4a1.008 1.008 0 0 0 -.165.337l-2.818 10.334c-1.965.189-7.634.728-10.293.932-3.742.286-6.842 3.335-7.91 7.833l-.965 5.788-7.881 11.821a1.006 1.006 0 0 0 -.168.555v6a1 1 0 0 0 .219.625l4.029 5.033c1.325 1.514 4.047 3.128 6.413 2.529a8.171 8.171 0 0 0 6.193 2.813 12.416 12.416 0 0 0 5.981-1.749s.554.546.61.583a14.774 14.774 0 0 0 7.555 2.166c5.151 0 10-6.2 10-11a1 1 0 0 0 -1.64-.769c-1.515 1.263-5.922 4.438-8.916 4.739l-4.351-5.22 4.607-18.438 12.147 4.338c-.188 1.236-.28 3.439 1.035 4.948 1.035 1.185 2.66 1.659 4.826 1.437 3.021 2.271-.085 9.73-1.586 12.486a1 1 0 0 0 1.366 1.352c5.495-3.075 8.57-6.749 9.139-10.92.806-5.893-3.729-10.471-3.922-10.663-.02-.019-.105-.09-.136-.112zm-14.936 19.107c-1.154 3.647-4.794 6.715-7.633 6.715a12.993 12.993 0 0 1 -5.792-1.462l.513-1.538h4.279c2.834 0 6.429-2.168 8.633-3.715zm9.79-13.223a3.424 3.424 0 0 1 -3.03-.776c-.968-1.1-.639-3.271-.432-4.012a1 1 0 0 0 -.625-1.215l-2.95-1.054.563-1.689-1.9-.632-.549 1.648-1.739-.621 1.139-2.264-1.79-.894-1.24 2.48-5.529-1.974a1 1 0 0 0 -1.306.7l-4.566 18.241h-2.469v2h2a1 1 0 0 0 .231.641l3.634 4.359h-2.865a1 1 0 0 0 -.949.684l-.5 1.5.008-.011a10.1 10.1 0 0 1 -2.685-2.624l1.837-1.837-1.414-1.414-1.439 1.439a12.593 12.593 0 0 1 -.869-2.9 11.477 11.477 0 0 1 .125-2.837l4.129-1.032-.486-1.94-3.318.83c.164-.968.36-2.009.578-3.084l3.226-.806-.486-1.94-2.284.571c.266-1.223.544-2.441.82-3.6h3.707v-1.999h-3.22c.064-.255.128-.511.189-.753a.984.984 0 0 0 .031-.247c0-3.53.76-5.9 2.2-6.863a4.019 4.019 0 0 1 3.413-.216l.783-1.84a5.976 5.976 0 0 0 -5.284.378c-2.044 1.348-3.089 4.178-3.11 8.415-.486 1.918-3.532 14.14-2.985 17.3a12.694 12.694 0 0 0 4.164 7.683c-4.5 2.2-7.206.75-8.5-.447l3.7-1.478-.744-1.858-4.3 1.722a13.353 13.353 0 0 1 -2.937-6.796h4.6v-2h-4.549a5.5 5.5 0 0 1 .429-1.526l.719-1.335 4.2.841.392-1.96-3.601-.72 1.6-2.97 2.256 1.5 1.11-1.664-2.413-1.609 1.274-2.366 2.268.755.632-1.9-1.938-.646.5-.932a1 1 0 0 0 .121-.468c0-5.318 1.155-7.088 1.844-7.669a1.236 1.236 0 0 1 .947-.353l.209-.978.243-.97a3.108 3.108 0 0 0 -2.571.677c-1.741 1.359-2.64 4.4-2.671 9.039l-6.883 12.783c-.114.215-2.576 5.022 2.095 11.755a6.142 6.142 0 0 1 -3.432-1.909l-3.5-4.375h2.719v-2h-3v-2h2v-2h-1.8l1.207-1.81 2.275.758.632-1.9-1.758-.586 1.534-2.3 1.461.731.894-1.79-1.237-.618 2.622-3.932a.99.99 0 0 0 .154-.391l.987-5.933c.837-3.513 3.289-6.018 6.1-6.234 3.257-.247 10.948-.995 11.029-.995a1 1 0 0 0 .868-.732l.3-1.119 8.414 2.8.632-1.9-8.514-2.837.817-3 6.111 1.746.55-1.924-6.134-1.753.774-2.838 2.582-3.443h12.734l-5.091 8.485a.989.989 0 0 0 -.118.29l-3 13a1 1 0 0 0 .406 1.047l12.192 8.441zm7.221 4.638c-.383 2.769-2.166 5.327-5.313 7.633 1.382-3.462 2.859-8.876.021-11.555l2.746-4.12c1.138 1.481 3.029 4.542 2.546 8.042z"/></g></g></svg>