<svg id="Layer_1" height="512" viewBox="0 0 512 512" width="512" xmlns="http://www.w3.org/2000/svg" data-name="Layer 1"><path d="m415.641 293.617c24.1-29.965 25.37-54.976 22.187-70.682-3.517-17.348-13.054-27.408-13.458-27.828a6 6 0 0 0 -10.2 5.335c5.079 25.48-8.432 51.181-18.85 64.18.142-5.979.393-13.256.833-21.135.752-13.449-5.989-30.8-11.936-46.111-3.227-8.306-6.273-16.151-7.607-22.034-2.576-11.374 13.244-29.563 18.985-35.035a6 6 0 0 0 -.866-9.383c-6.778-4.4-17.078-2.921-30.618 4.39a57.078 57.078 0 0 0 -11.712 8.554c-1.905 1.776-6.786 5.792-10.949 4.758-3.993-1-7.931-6.6-11.09-15.769-10.141-29.446-16.722-34.244-26.36-38.648a33.462 33.462 0 0 1 -6-3.276c-16.979-12.136-22.363-58.3-23-75.059a6 6 0 0 0 -4.973-5.684c-9.778-1.7-20.189 7.625-31.793 28.492a44.049 44.049 0 0 0 -5.375 19.7c-.88 23.832-17.164 31.645-17.815 31.947a6.1 6.1 0 0 0 -1.053.6 33.462 33.462 0 0 1 -6 3.276c-9.634 4.4-16.215 9.2-26.351 38.648-3.159 9.173-7.1 14.773-11.09 15.769-4.168 1.036-9.045-2.982-10.949-4.758a57.078 57.078 0 0 0 -11.712-8.554c-13.54-7.311-23.839-8.786-30.618-4.39a6 6 0 0 0 -.869 9.38c5.744 5.475 21.564 23.664 18.988 35.038-1.334 5.883-4.38 13.728-7.607 22.034-5.947 15.309-12.688 32.662-11.936 46.111.44 7.879.691 15.156.833 21.135-10.418-13-23.928-38.7-18.85-64.18a6 6 0 0 0 -10.2-5.335c-.4.42-9.941 10.48-13.458 27.828-3.183 15.706-1.917 40.717 22.187 70.682a121.233 121.233 0 0 1 25.86 58.093c.2 1.343.346 2.524.459 3.564-14.974-13.62-21.789-17.677-40.3-17.419a6 6 0 0 0 -5.385 8.472 176.182 176.182 0 0 0 13.714 24.024c10.057 14.736 20.263 24.3 30.406 28.533a7.479 7.479 0 0 1 -1.813 3.594c-1.442 1.418-3.924 1.946-7.388 1.574a6 6 0 0 0 -6.3 7.97c.377 1.063 8.7 23.443 39.833 27.288l-16.22 20.325c-.744 1.27-7.128 12.694-2.341 22.551 2.889 5.95 8.844 9.585 17.7 10.8 12.842 1.768 17.445 3.023 18.927 3.53a6 6 0 0 0 4.063 1.585h.008a6 6 0 0 0 5-2.69 6.106 6.106 0 0 0 .451-5.918 7.023 7.023 0 0 0 -.864-1.493 8.054 8.054 0 0 1 -.628-5.643c1.093-3.29 5.443-5.451 8.9-6.683 8.735-3.116 14.01-7.853 15.678-14.079a15.941 15.941 0 0 0 .412-6.086c10.315 1.367 26 5.605 28.295 18.722 2.57 14.661 18.787 23.987 48.2 27.717a6 6 0 0 0 5.412-9.734c-.081-.1-6.242-7.949-6.436-15.508a86.4 86.4 0 0 0 17.307 9.719c17.127 7.108 34.547 7.323 50.868.751-.114.308-.23.593-.336.823a7.034 7.034 0 0 0 -.865 1.494 6.106 6.106 0 0 0 .451 5.918 6 6 0 0 0 5 2.69h.008a6 6 0 0 0 4.063-1.585c1.482-.507 6.084-1.762 18.927-3.53 8.854-1.219 14.809-4.854 17.7-10.8 4.787-9.857-1.6-21.281-2.341-22.551a6.124 6.124 0 0 0 -.5-.722l-15.723-19.6c31.133-3.847 39.456-26.225 39.833-27.288a6 6 0 0 0 -6.3-7.97c-3.441.37-5.915-.149-7.358-1.546a7.394 7.394 0 0 1 -1.852-3.619c10.147-4.233 20.356-13.8 30.415-28.536a176.182 176.182 0 0 0 13.714-24.024 6 6 0 0 0 -5.385-8.472c-18.457-.272-25.327 3.8-40.3 17.419.113-1.039.262-2.221.459-3.563a121.232 121.232 0 0 1 25.854-58.093zm-33.826 77.466c2.35 1.239 6.146 1.792 10.87-2.593 12.872-11.945 18.166-16.59 26.794-18.063-7.827 14.152-22.012 34.883-36.367 38.452-.061.015-.12.036-.182.052s-.156.042-.233.067c-9.087 2.422-16.348 9.692-20.469 20.54a6 6 0 1 0 11.216 4.262 25.489 25.489 0 0 1 6.4-9.953 18.406 18.406 0 0 0 4.433 7.18 17.109 17.109 0 0 0 6.325 3.92c-5.238 5.972-15.9 13.548-35.946 12.881a6 6 0 0 0 -4.877 9.751l22.821 28.445c1.317 2.476 3.231 7.85 1.715 10.938-1.292 2.629-5.353 3.7-8.533 4.14-5.408.745-9.675 1.427-13.054 2.077a17.677 17.677 0 0 0 -.874-4.6c-2.1-6.327-7.572-11.106-16.257-14.2-4.639-1.654-7.518-3.73-8.109-5.847-.612-2.192 1.141-5.007 1.765-5.773a6 6 0 0 0 -9.141-7.776c-.676.794-6.532 8.007-4.225 16.62 1.668 6.226 6.943 10.963 15.678 14.079.805.287 1.659.626 2.51 1.017-33.028 12.188-59.661-13.271-60.857-14.441a6 6 0 0 0 -9.111.808c-5.93 8.384-4.53 17.741-1.719 24.915-15.346-3.4-24.547-8.964-25.747-15.813-5.219-29.788-47.629-29.34-49.437-29.3a6 6 0 0 0 -4.457 9.887c.414.487 2.39 3.443 1.775 5.739-.571 2.129-3.454 4.218-8.119 5.881-8.685 3.1-14.155 7.877-16.256 14.2a17.638 17.638 0 0 0 -.875 4.6c-3.379-.65-7.646-1.332-13.054-2.077-3.18-.438-7.241-1.511-8.533-4.14-1.519-3.095.407-8.485 1.712-10.935l22.819-28.448a6 6 0 0 0 -4.877-9.751c-20.089.666-30.721-6.9-35.954-12.879a17.112 17.112 0 0 0 6.333-3.922 18.422 18.422 0 0 0 4.433-7.179 25.479 25.479 0 0 1 6.405 9.952 6 6 0 1 0 11.216-4.262c-4.184-11.015-11.6-18.352-20.885-20.659-14.355-3.569-28.54-24.3-36.365-38.452 8.626 1.474 13.922 6.119 26.793 18.062 4.723 4.385 8.518 3.833 10.87 2.594 5.419-2.851 5.512-10.193 3.907-21.118a133.234 133.234 0 0 0 -28.383-63.861c-20.6-25.61-22.73-46.51-19.819-60.894 4.225 24.786 19.039 45.845 28.026 54.107a8.9 8.9 0 0 0 14.911-6.688c-.078-6.879-.313-17.634-1-29.8-.606-10.856 5.635-26.921 11.142-41.1 3.391-8.732 6.595-16.979 8.124-23.727 2.018-8.911-1.29-19.554-9.833-31.638-1.045-1.477-2.1-2.883-3.14-4.2a62.551 62.551 0 0 1 8.067 3.716 45.1 45.1 0 0 1 9.229 6.77c7.157 6.676 14.981 9.381 22.036 7.626 8.305-2.07 14.877-9.978 19.533-23.506 9.194-26.7 13.96-28.881 20-31.64a45.4 45.4 0 0 0 7.554-4.126c3.828-1.928 23.242-13.121 24.315-42.173a31.957 31.957 0 0 1 3.871-14.313c6.382-11.48 11.437-17.37 14.815-20.194a253.942 253.942 0 0 0 3.66 26.59c4.932 25.259 12.948 42.01 23.826 49.786a44.419 44.419 0 0 0 7.987 4.427c6.035 2.759 10.8 4.937 20 31.64 4.656 13.528 11.228 21.436 19.533 23.506 7.054 1.758 14.879-.949 22.036-7.626a45.1 45.1 0 0 1 9.229-6.77 62.551 62.551 0 0 1 8.067-3.716c-1.036 1.316-2.1 2.722-3.14 4.2-8.543 12.084-11.851 22.727-9.833 31.638 1.529 6.748 4.733 15 8.124 23.727 5.507 14.175 11.748 30.24 11.142 41.1-.682 12.17-.917 22.925-1 29.806a8.9 8.9 0 0 0 14.913 6.684c8.964-8.24 23.726-29.219 27.994-53.925 3.86 19.165-2.8 39.592-19.789 60.714a133.234 133.234 0 0 0 -28.383 63.87c-1.606 10.919-1.506 18.261 3.909 21.112z"/><path d="m257.285 142.043c-30.843 0-59.724 15.925-81.321 44.841-21.207 28.393-32.887 66.048-32.887 106.03s11.68 77.638 32.887 106.029c21.6 28.917 50.478 44.842 81.321 44.842s59.724-15.925 81.322-44.842c21.208-28.392 32.887-66.047 32.887-106.029s-11.679-77.637-32.887-106.03c-21.598-28.916-50.479-44.841-81.322-44.841zm0 289.742c-56.357 0-102.208-62.3-102.208-138.871s45.851-138.871 102.208-138.871 102.209 62.3 102.209 138.871-45.85 138.871-102.209 138.871z"/><path d="m209.224 196.351a6 6 0 1 0 11.035-4.716l-2.492-5.832a6 6 0 0 0 -11.036 4.716z"/><path d="m193.774 251.646a5.977 5.977 0 0 0 3.261-.967l7.065-4.579a6 6 0 1 0 -6.534-10.065l-7.06 4.582a6 6 0 0 0 3.272 11.033z"/><path d="m206.345 294.522a6 6 0 0 0 -6-6h-6.437a6 6 0 1 0 0 12h6.437a6 6 0 0 0 6-6z"/><path d="m269.746 330.565a6 6 0 1 0 -12 0v7.764a6 6 0 1 0 12 0z"/><path d="m284.425 275.541-5.815 2.5a6 6 0 1 0 4.741 11.024l5.814-2.5a6 6 0 0 0 -4.74-11.024z"/><path d="m209.481 369.025a6 6 0 0 0 -6 6v8.243a6 6 0 1 0 12 0v-8.243a6 6 0 0 0 -6-6z"/><path d="m181.518 319.14h-5.018a6 6 0 0 0 0 12h5.023a6 6 0 1 0 0-12z"/><path d="m309.524 225.9v7.326a6 6 0 1 0 12 0v-7.326a6 6 0 0 0 -12 0z"/><path d="m335.957 314.633-3.195 7.327a6 6 0 1 0 11 4.8l3.195-7.327a6 6 0 1 0 -11-4.8z"/><path d="m228.6 268.054-2.023 5.3a6 6 0 1 0 11.213 4.276l2.022-5.3a6 6 0 1 0 -11.212-4.275z"/><path d="m277.5 189.668a6 6 0 0 0 11.687-2.725l-1.44-6.178a6 6 0 1 0 -11.687 2.725z"/><path d="m244.071 225.183a6 6 0 0 0 -.287 8.48l5.549 5.937a6 6 0 0 0 8.768-8.194l-5.549-5.937a6 6 0 0 0 -8.481-.286z"/><path d="m262.365 306.068a6 6 0 0 0 1.042-11.908l-6.338-1.125a6 6 0 1 0 -2.1 11.815l6.338 1.125a6.028 6.028 0 0 0 1.058.093z"/><path d="m307.657 332.669a6 6 0 0 0 -6.951 4.867l-1.349 7.646a6 6 0 0 0 4.868 6.951 6.144 6.144 0 0 0 1.048.092 6 6 0 0 0 5.9-4.959l1.348-7.646a6 6 0 0 0 -4.864-6.951z"/><path d="m331.639 282.23a6 6 0 1 0 2.74 11.684l6.159-1.444a6 6 0 1 0 -2.74-11.684z"/><path d="m244.022 355.8a6 6 0 1 0 -11.816-2.086l-1.433 8.116a6 6 0 1 0 11.817 2.086z"/><path d="m226.52 324.915-4.946-.878a6 6 0 1 0 -2.1 11.815l4.945.877a5.938 5.938 0 0 0 1.056.094 6 6 0 0 0 1.042-11.908z"/><path d="m271.568 258.4a5.979 5.979 0 0 0 3.622-1.219l6.212-4.714a6 6 0 1 0 -7.252-9.56l-6.212 4.713a6 6 0 0 0 3.63 10.78z"/><path d="m281.723 223.263a5.976 5.976 0 0 0 4.075-1.6l6.195-5.736a6 6 0 0 0 -8.152-8.806l-6.195 5.736a6 6 0 0 0 4.077 10.4z"/><path d="m195.828 222.854a6 6 0 1 0 11.526-3.339l-1.247-4.3a6 6 0 1 0 -11.525 3.339z"/><path d="m244.974 209.772a5.972 5.972 0 0 0 2.175-.411l3.384-1.318a6 6 0 0 0 -4.355-11.182l-3.384 1.319a6 6 0 0 0 2.18 11.592z"/><path d="m177.949 273.051a6 6 0 0 0 2.493-11.46l-5.83-2.658a6 6 0 1 0 -4.978 10.918l5.83 2.658a5.98 5.98 0 0 0 2.485.542z"/><path d="m248.168 391.3a6 6 0 0 0 -6 6v7.443a6 6 0 0 0 12 0v-7.443a6 6 0 0 0 -6-6z"/><path d="m291.271 390.124a6 6 0 1 0 -11.018 4.754l2.714 6.291a6 6 0 1 0 11.017-4.754z"/><path d="m304.843 274.956a6 6 0 1 0 11.23-4.227l-3.18-8.451a6 6 0 1 0 -11.231 4.227z"/><path d="m298.587 301.944a6 6 0 0 0 -8.475.416l-5.3 5.849a6 6 0 0 0 8.891 8.059l5.3-5.849a6 6 0 0 0 -.416-8.475z"/><path d="m285.582 363.99a6 6 0 0 0 -6-6h-4.77a6 6 0 0 0 0 12h4.77a6 6 0 0 0 6-6z"/><path d="m193.18 341.84a5.992 5.992 0 1 0 4.24 1.75 6.04 6.04 0 0 0 -4.24-1.75z"/><path d="m227.37 241.72a6.009 6.009 0 1 0 -4.24-1.76 6.007 6.007 0 0 0 4.24 1.76z"/><path d="m332.569 262.83a6.012 6.012 0 1 0 -4.239-1.761 6.047 6.047 0 0 0 4.239 1.761z"/><path d="m253.37 265.77a6.022 6.022 0 1 0 4.25-1.75 6.086 6.086 0 0 0 -4.25 1.75z"/><path d="m205.02 262.7a5.992 5.992 0 1 0 4.24 1.75 6.086 6.086 0 0 0 -4.24-1.75z"/><path d="m225.76 298.75a5.987 5.987 0 1 0 4.24-1.76 6.01 6.01 0 0 0 -4.24 1.76z"/><path d="m315.18 363.38a6 6 0 1 0 4.24-1.76 6.012 6.012 0 0 0 -4.24 1.76z"/><path d="m307.59 200.83a6.009 6.009 0 1 0 -4.24-1.76 6.029 6.029 0 0 0 4.24 1.76z"/><path d="m316.79 300.95a5.992 5.992 0 1 0 4.24 1.75 6.062 6.062 0 0 0 -4.24-1.75z"/><path d="m245.852 184.515a6 6 0 0 0 6.951-4.866l1.273-7.214a6 6 0 1 0 -11.816-2.086l-1.274 7.215a6 6 0 0 0 4.866 6.951z"/></svg>