<svg id="_x33_0" enable-background="new 0 0 62 62.419" height="512" viewBox="0 0 62 62.419" width="512" xmlns="http://www.w3.org/2000/svg"><g><path d="m49 16.419c-1.654 0-3 1.346-3 3s1.346 3 3 3 3-1.346 3-3-1.346-3-3-3zm0 4c-.551 0-1-.449-1-1s.449-1 1-1 1 .449 1 1-.449 1-1 1z"/><path d="m58.093 9.176.442-.11c2.04-.51 3.465-2.335 3.465-4.438 0-1.744-.969-3.311-2.545-4.1l-1.036-.528-.368 1.103c-.496 1.489-1.77 2.552-3.323 2.774l-.739.105c-1.545.221-2.908 1.024-3.864 2.196-1.52-2.561-3.88-4.61-6.774-5.695l-.972-.364-.328.984c-.411 1.233-1.682 1.973-2.956 1.716l-3.589-.719.545 1.635c.394 1.181-.203 2.467-1.359 2.93l-4.779 1.912 2.812.804c1.044.298 2.057.673 3.036 1.111-.744.487-1.43 1.045-2.048 1.666l-3.266-1.633-.895 1.789 2.836 1.418c-.728 1.016-1.303 2.136-1.708 3.327l-2.439-.61-.485 1.94 2.431.608c-.118.699-.187 1.412-.187 2.136 0 .429.027.858.07 1.286h-2.07v2h2.42l.519 2.336c.122.551.228 1.107.329 1.664h-3.268v2h3.587c.123.907.22 1.817.287 2.729-3.752-1.781-7.879-2.729-12.099-2.729-.862 0-1.717.046-2.567.123l3.768-5.443c1.978-2.857 3.024-6.204 3.024-9.68 0-1.987-.537-3.848-1.463-5.458l1.779-.593-.632-1.898-2.354.785c-.795-.923-1.741-1.71-2.799-2.329l1.302-1.952-1.664-1.109-1.472 2.207c-.857-.307-1.758-.517-2.697-.602v-2.051h-2v2.08c-1.183.17-2.269.636-3.184 1.322l-1.109-1.109-1.414 1.414 1.109 1.109c-.686.915-1.152 2.001-1.322 3.184h-2.08v2h2.101c.465 2.279 2.484 4 4.899 4 1.793 0 3.356-.957 4.239-2.379.484.615.761 1.379.761 2.19 0 1.088-.481 2.103-1.319 2.784l-9.22 7.491c-3.47 2.821-5.461 7.003-5.461 11.474 0 5.532 3.126 10.612 8.01 13.132.111 4.047 3.43 7.307 7.503 7.307h.876c.713 1.239 2.02 2 3.464 2h2.147c0 1.103.897 2 2 2h6c1.103 0 2-.897 2-2h1.867c1.975 0 3.884-.368 5.702-1.058l.021.106c.342 1.711 1.857 2.952 3.601 2.952.728 0 1.432-.214 2.037-.617l1.319-.879c.494-.33 1.069-.504 1.664-.504h1.789c0 1.103.897 2 2 2h6c1.103 0 2-.897 2-2v-1c0-2.723-2.191-4.936-4.901-4.99v-.005l-8.085-.809c1.929-2.715 2.986-5.96 2.986-9.328 0-3.675-1.269-7.196-3.519-10.027.304.103.627.16.961.16h2.131l.727 2h1.306c3.526 0 6.395-2.868 6.395-6.395 0-.595-.174-1.17-.504-1.664l-1.497-2.244v-7.574c0-1.771-.748-3.387-1.965-4.543.18-2.302 1.786-4.255 4.058-4.823zm1.295-6.218c.389.457.612 1.043.612 1.67 0 .398-.097.775-.261 1.116l-1.449-1.449c.423-.39.797-.835 1.098-1.337zm-4.377 2.898c.55-.078 1.072-.236 1.565-.448l1.655 1.655c-.061.02-.118.046-.181.062l-.442.11c-.606.152-1.165.396-1.696.681l-1.9-1.9c.087-.018.171-.043.26-.055zm-41.312 39.165-.184-.073 2.174-3.262-6.189-1.031 1.21-2.419.212-.071c6.116-2.037 12.763-2.294 19.021-.73l6.32 1.58c-3.728 4.706-9.295 7.404-15.308 7.404-2.496 0-4.937-.47-7.256-1.398zm19.642-8.797-2.914-.729c-6.625-1.654-13.663-1.385-20.139.773l-.258.086-2.46-.984 1.558-.691c3.373-1.5 6.954-2.26 10.646-2.26 4.817 0 9.498 1.34 13.567 3.805zm-25.082 12.741c-3.838-2.283-6.259-6.459-6.259-10.986 0-3.866 1.721-7.483 4.722-9.922l9.22-7.491c1.308-1.062 2.058-2.642 2.058-4.336 0-1.693-.758-3.258-2.051-4.305.017-.169.051-.333.051-.506 0-1.654-1.346-3-3-3s-3 1.346-3 3v1h2v-1c0-.551.449-1 1-1s1 .449 1 1c0 1.654-1.346 3-3 3s-3-1.346-3-3c0-2.757 2.243-5 5-5 4.962 0 9 4.038 9 9 0 3.067-.923 6.021-2.668 8.542l-4.818 6.959c-2.122.402-4.195 1.041-6.198 1.931l-5.888 2.617 6.191 2.476-2.119 4.239 5.81.969-1.039 1.559c-1.501 1.027-2.555 2.539-3.012 4.254zm13.842 9.454h-2.247c-.762 0-1.448-.424-1.789-1.105l-.447-.895h-2.104c-3.04 0-5.514-2.474-5.514-5.514 0-1.716.799-3.311 2.144-4.352l.813.325c1.053.421 2.133.734 3.226.983.764.958 1.303 2.085 1.544 3.288l.188.94-1.622 1.622 1.414 1.414 1.545-1.545 4.817 1.806c-.99.724-1.715 1.79-1.968 3.033zm5.899 2v-2h-2v2h-2v-1c0-1.654 1.346-3 3-3s3 1.346 3 3l.001 1zm3.899-2c-.154-.758-.496-1.441-.951-2.032 2.004-.072 3.933-.517 5.753-1.326l1.537 1.23c.372.297.657.682.851 1.111-1.659.662-3.408 1.018-5.222 1.018h-1.968zm16.312 0c-.991 0-1.95.29-2.773.84l-1.319.879c-.275.185-.596.281-.927.281-.794 0-1.484-.565-1.64-1.345l-.285-1.423c-.23-1.151-.862-2.189-1.779-2.924l-2.341-1.872c-.73-.583-1.147-1.452-1.147-2.383 0-1.684 1.369-3.053 3.052-3.053 1.349 0 2.573.849 3.046 2.111l1.812 4.832-.805 1.61 1.789.895.692-1.383 5.738.574c-.6.655-1.04 1.46-1.224 2.362h-1.889zm-2.233-17h1.721c.136.656.212 1.325.254 2h-2.183c.112-.659.181-1.327.208-2zm-.042-2c-.107-1.213-.351-2.408-.737-3.568l-.005-.014c.817 1.095 1.455 2.306 1.924 3.582zm-1.444-7.273-.102-.089c-1.437-1.257-2.284-3.045-2.373-4.944l1.127.902 1.391 4.174c-.015-.014-.028-.029-.043-.043zm.802 13.273h2.653c-.205 2.562-1.104 5.006-2.596 7.088l-1.38-3.68c-.025-.067-.062-.127-.09-.193.593-1.02 1.067-2.097 1.413-3.215zm12.706 14 .001 1h-2.001v-2h-2v2h-2v-1c0-1.654 1.346-3 3-3s3 1.346 3 3zm-2.168-29.949c.11.165.168.356.168.554 0 2.392-1.92 4.343-4.3 4.394l-.7-1.926v-.073h-.027l-3.033-8.342-1.88.684 2.785 7.658h-1.404c-.431 0-.813-.275-.949-.684l-1.637-4.912-2.612-2.09c-1.426-1.141-2.243-2.842-2.243-4.667 0-.923.218-1.848.63-2.672l.264-.527-1.788-.896-.264.527c-.551 1.102-.842 2.335-.842 3.568 0 1.969.722 3.821 2 5.266v1.457c0 2.024.688 3.965 1.914 5.534l1.387 4.161c.464 1.391.699 2.841.699 4.309 0 2.1-.488 4.151-1.405 6.013-.951-.868-2.208-1.387-3.543-1.387-2.786 0-5.052 2.267-5.052 5.053 0 1.145.382 2.231 1.071 3.11-1.497.552-3.07.837-4.698.837h-3.192l-7.31-2.741-.184-.92c-.17-.852-.461-1.673-.848-2.445.701.069 1.406.106 2.116.106 6.695 0 12.892-3.03 17.001-8.314l1.413-1.817-1.016-.888c-1.375-1.203-2.855-2.256-4.414-3.161-.125-2.661-.471-5.322-1.048-7.917l-.637-2.863c-.168-.765-.254-1.547-.254-2.326 0-4.042 2.291-7.734 5.871-9.552 2.272 1.319 4.312 3.02 6.022 5.071l.339.407 1.536-1.28-.339-.407c-2.597-3.117-5.879-5.515-9.598-7.031 1.261-.656 2.085-1.874 2.288-3.223 4 2.111 7.178 5.531 8.963 9.695l1.838-.788c-1.646-3.841-4.376-7.1-7.805-9.429.97-.342 1.819-.993 2.375-1.885 3.928 1.851 6.51 5.862 6.51 10.252v1.237l.757.189c1.91.478 3.243 2.185 3.243 4.153v8.18zm-3.835-16.782c-.032-1.528-.337-3.01-.862-4.398.241-.513.579-.962.993-1.329l2.139 2.139c-1.025.99-1.743 2.267-2.063 3.687-.071-.03-.135-.071-.207-.099z"/><path d="m18 38.419h8v2h-8z"/><path d="m20 42.419h4v2h-4z"/></g></svg>